#!OML:ASF H:\Dans Jumps\Project 1\Capture day 1\Session 1\subject.ASF
:FULLY-SPECIFIED
:DEGREES
311
root 0.428823 17.0404 -7.18433 5.80726 -0.132008 -0.917686
lowerback 5.03469 -0.111759 -1.23839
upperback 5.23083 -0.206188 1.32012
thorax 2.57482 -0.16821 2.05879
lowerneck -12.799 -0.26246 -1.38277
upperneck 32.2559 -0.570469 1.65939
head 12.882 -0.205592 0.800654
rclavicle 3.62782e-015 1.39149e-015
rhumerus -41.9644 -31.2626 -60.4663
rradius 18.5396
rwrist 47.1766
rhand -15.1374 -25.7988
rfingers 7.12502
rthumb 11.0322 -55.4889
lclavicle 3.62782e-015 1.39149e-015
lhumerus -39.7324 4.30485 81.5017
lradius 15.2299
lwrist 0.792
lhand -22.2664 -0.0266688
lfingers 7.12502
lthumb 4.15156 29.9126
rfemur -25.9148 -4.40663 18.4047
rtibia 41.8695
rfoot -20.3274 -1.19876
rtoes 4.7533
lfemur -25.0938 6.83025 -19.7643
ltibia 39.3472
lfoot -17.214 8.25945
ltoes 1.54397
312
root 0.428571 17.0615 -7.16805 6.01771 -0.213288 -0.885176
lowerback 5.0368 -0.0560748 -1.31312
upperback 5.25363 -0.13412 1.30285
thorax 2.59441 -0.134639 2.08106
lowerneck -12.8587 -0.290435 -1.38266
upperneck 32.1193 -0.609696 1.66439
head 12.8383 -0.221602 0.795812
rclavicle 5.96354e-016 -3.97569e-015
rhumerus -43.4555 -31.0763 -59.3106
rradius 18.7526
rwrist 46.7064
rhand -15.1072 -25.6884
rfingers 7.12502
rthumb 11.0613 -55.3769
lclavicle 5.96354e-016 -3.97569e-015
lhumerus -41.192 2.72913 82.1203
lradius 15.7487
lwrist 1.86266
lhand -21.6472 0.0801474
lfingers 7.12502
lthumb 4.74946 30.0069
rfemur -25.889 -4.35292 18.3843
rtibia 41.474
rfoot -20.1803 -1.16252
rtoes 4.74944
lfemur -25.0099 6.83545 -19.8175
ltibia 38.8911
lfoot -17.086 8.24436
ltoes 1.76157
313
root 0.428527 17.0804 -7.15254 6.21278 -0.279812 -0.868867
lowerback 5.04419 -0.00286305 -1.36281
upperback 5.28231 -0.0647874 1.29251
thorax 2.61709 -0.101858 2.09652
lowerneck -12.9199 -0.315582 -1.38752
upperneck 31.9982 -0.642984 1.66792
head 12.8014 -0.235774 0.792293
rclavicle -1.49089e-015 -5.76476e-015
rhumerus -44.8945 -30.9002 -58.16
rradius 18.9213
rwrist 46.3368
rhand -15.1103 -25.5248
rfingers 7.12502
rthumb 11.0584 -55.2135
lclavicle -1.49089e-015 -5.76476e-015
lhumerus -42.5944 1.2983 82.7279
lradius 16.2465
lwrist 2.87518
lhand -20.9688 0.205177
lfingers 7.12502
lthumb 5.40447 30.1163
rfemur -25.8623 -4.27407 18.3774
rtibia 41.111
rfoot -20.0451 -1.16666
rtoes 4.71521
lfemur -24.9409 6.8287 -19.852
ltibia 38.4869
lfoot -16.9737 8.24018
ltoes 1.96292
314
root 0.428472 17.097 -7.13794 6.39809 -0.320953 -0.862048
lowerback 5.05338 0.0430814 -1.39411
upperback 5.31166 -0.00467611 1.2874
thorax 2.63976 -0.0732046 2.1073
lowerneck -12.9728 -0.336325 -1.39543
upperneck 31.8938 -0.668195 1.66825
head 12.7697 -0.247198 0.789389
rclavicle -1.39149e-015 7.55382e-015
rhumerus -46.2839 -30.7491 -57.0048
rradius 19.0343
rwrist 46.0863
rhand -15.1473 -25.3476
rfingers 7.12502
rthumb 11.0227 -55.0382
lclavicle -1.39149e-015 7.55382e-015
lhumerus -43.9338 0.0192336 83.3034
lradius 16.7003
lwrist 3.82288
lhand -20.2895 0.321179
lfingers 7.12502
lthumb 6.06036 30.2145
rfemur -25.8394 -4.17775 18.3774
rtibia 40.7786
rfoot -19.9204 -1.20868
rtoes 4.67167
lfemur -24.8947 6.80414 -19.875
ltibia 38.1324
lfoot -16.8743 8.24255
ltoes 2.1329
315
root 0.428283 17.1114 -7.1242 6.57538 -0.328324 -0.867744
lowerback 5.06387 0.0783723 -1.40396
upperback 5.33984 0.0417828 1.28911
thorax 2.66106 -0.0507799 2.11344
lowerneck -13.0265 -0.351942 -1.40209
upperneck 31.8132 -0.685259 1.66468
head 12.7479 -0.255386 0.786154
rclavicle -9.44227e-016 -5.96354e-015
rhumerus -47.6109 -30.6079 -55.8652
rradius 19.0916
rwrist 45.9121
rhand -15.2265 -25.2143
rfingers 7.12502
rthumb 10.9462 -54.9089
lclavicle -9.44227e-016 -5.96354e-015
lhumerus -45.1907 -1.10754 83.8324
lradius 17.09
lwrist 4.70297
lhand -19.6274 0.475621
lfingers 7.12502
lthumb 6.69956 30.3496
rfemur -25.8204 -4.07182 18.389
rtibia 40.4752
rfoot -19.8056 -1.28678
rtoes 4.63595
lfemur -24.8736 6.75733 -19.882
ltibia 37.8266
lfoot -16.7876 8.24537
ltoes 2.26596
316
root 0.427958 17.1241 -7.11146 6.74731 -0.298225 -0.886047
lowerback 5.07236 0.100723 -1.39034
upperback 5.36584 0.0716527 1.29684
thorax 2.68194 -0.0359558 2.11304
lowerneck -13.0587 -0.362677 -1.41609
upperneck 31.7371 -0.694406 1.66386
head 12.7233 -0.26069 0.786434
rclavicle 1.2424e-015 1.21259e-014
rhumerus -48.8977 -30.5637 -54.6634
rradius 19.0567
rwrist 45.9398
rhand -15.3596 -25.1152
rfingers 7.12502
rthumb 10.8179 -54.8166
lclavicle 1.2424e-015 1.21259e-014
lhumerus -46.3565 -2.08868 84.3044
lradius 17.4093
lwrist 5.5129
lhand -18.9883 0.702177
lfingers 7.12502
lthumb 7.31646 30.5557
rfemur -25.8077 -3.96499 18.4128
rtibia 40.1998
rfoot -19.7016 -1.39403
rtoes 4.62293
lfemur -24.8798 6.68958 -19.8735
ltibia 37.5651
lfoot -16.7114 8.2427
ltoes 2.36196
317
root 0.427288 17.1349 -7.0998 6.91363 -0.231892 -0.914261
lowerback 5.08326 0.111192 -1.36013
upperback 5.38789 0.0860952 1.31152
thorax 2.69808 -0.0283298 2.1109
lowerneck -13.0993 -0.368039 -1.42427
upperneck 31.6902 -0.69497 1.655
head 12.7125 -0.262528 0.784101
rclavicle -2.28602e-015 1.78906e-015
rhumerus -50.1316 -30.5485 -53.4531
rradius 18.9691
rwrist 46.0614
rhand -15.4996 -25.0729
rfingers 7.12502
rthumb 10.6828 -54.7813
lclavicle -2.28602e-015 1.78906e-015
lhumerus -47.4158 -2.91533 84.6981
lradius 17.6379
lwrist 6.22981
lhand -18.3768 0.985697
lfingers 7.12502
lthumb 7.90665 30.8178
rfemur -25.8019 -3.86018 18.4477
rtibia 39.9509
rfoot -19.6063 -1.52733
rtoes 4.64045
lfemur -24.9116 6.6048 -19.8511
ltibia 37.3428
lfoot -16.6436 8.23016
ltoes 2.41649
318
root 0.426439 17.1444 -7.08862 7.06852 -0.137452 -0.943
lowerback 5.09465 0.111408 -1.32244
upperback 5.41161 0.0870808 1.32932
thorax 2.71633 -0.0272566 2.10815
lowerneck -13.1341 -0.371226 -1.44076
upperneck 31.6545 -0.692437 1.65261
head 12.7051 -0.263185 0.786245
rclavicle 1.49089e-016 6.36111e-015
rhumerus -51.3199 -30.5972 -52.2054
rradius 18.8289
rwrist 46.3162
rhand -15.5788 -25.1028
rfingers 7.12502
rthumb 10.6065 -54.8152
lclavicle 1.49089e-016 6.36111e-015
lhumerus -48.3545 -3.57538 84.9872
lradius 17.7719
lwrist 6.82011
lhand -17.7753 1.31759
lfingers 7.12502
lthumb 8.48715 31.127
rfemur -25.7945 -3.76324 18.4828
rtibia 39.727
rfoot -19.5233 -1.67731
rtoes 4.68336
lfemur -24.9538 6.50893 -19.8252
ltibia 37.151
lfoot -16.5869 8.20768
ltoes 2.44039
